<svg width="164" height="36" viewBox="0 0 164 36" fill="none" xmlns="http://www.w3.org/2000/svg">
<rect width="164" height="36" fill="#161616"/>
<path d="M2.58239 31.4V5.21817H12.4006C14.4119 5.21817 16.0994 5.56761 17.4631 6.26647C18.8352 6.96533 19.8707 7.94545 20.5696 9.20681C21.277 10.4597 21.6307 11.9213 21.6307 13.5918C21.6307 15.2707 21.2727 16.7281 20.5568 17.9639C19.8494 19.1912 18.8054 20.1415 17.4247 20.8148C16.044 21.4795 14.348 21.8119 12.3366 21.8119H5.34375V17.8744H11.6974C12.8736 17.8744 13.8366 17.7125 14.5866 17.3886C15.3366 17.0562 15.8906 16.5747 16.2486 15.944C16.6151 15.3048 16.7983 14.5207 16.7983 13.5918C16.7983 12.6628 16.6151 11.8702 16.2486 11.2139C15.8821 10.5491 15.3239 10.0463 14.5739 9.70539C13.8239 9.35596 12.8565 9.18124 11.6719 9.18124H7.32528V31.4H2.58239ZM16.108 19.5364L22.5895 31.4H17.2969L10.9304 19.5364H16.108ZM23.9919 31.4V11.7636H28.6197V31.4H23.9919ZM26.3186 8.9767C25.5857 8.9767 24.955 8.7338 24.4266 8.248C23.8982 7.75369 23.6339 7.16136 23.6339 6.47102C23.6339 5.77215 23.8982 5.17982 24.4266 4.69403C24.955 4.19971 25.5857 3.95255 26.3186 3.95255C27.0601 3.95255 27.6908 4.19971 28.2107 4.69403C28.7391 5.17982 29.0033 5.77215 29.0033 6.47102C29.0033 7.16136 28.7391 7.75369 28.2107 8.248C27.6908 8.7338 27.0601 8.9767 26.3186 8.9767ZM49.1184 11.7636L42.1255 31.4H37.0119L30.019 11.7636H34.9536L39.4664 26.3503H39.671L44.1965 11.7636H49.1184ZM58.546 31.7835C56.5773 31.7835 54.877 31.3744 53.4452 30.5562C52.0219 29.7295 50.9267 28.5619 50.1597 27.0534C49.3926 25.5364 49.0091 23.7508 49.0091 21.6969C49.0091 19.677 49.3926 17.9043 50.1597 16.3787C50.9352 14.8446 52.0176 13.6514 53.4068 12.7991C54.796 11.9383 56.4281 11.5079 58.3031 11.5079C59.5134 11.5079 60.6554 11.704 61.7293 12.096C62.8116 12.4795 63.7662 13.0761 64.5929 13.8858C65.4281 14.6954 66.0844 15.7267 66.5616 16.9795C67.0389 18.2239 67.2776 19.7068 67.2776 21.4284V22.8474H51.1824V19.7281H62.8415C62.833 18.8418 62.6412 18.0534 62.2662 17.3631C61.8912 16.6642 61.367 16.1145 60.6937 15.7139C60.029 15.3133 59.2534 15.1131 58.367 15.1131C57.421 15.1131 56.5901 15.3432 55.8741 15.8034C55.1582 16.2551 54.6 16.8517 54.1994 17.5932C53.8074 18.3261 53.6071 19.1315 53.5986 20.0094V22.7324C53.5986 23.8744 53.8074 24.8545 54.225 25.6727C54.6426 26.4824 55.2264 27.1045 55.9764 27.5392C56.7264 27.9653 57.6043 28.1784 58.6099 28.1784C59.2832 28.1784 59.8926 28.0847 60.4381 27.8972C60.9835 27.7011 61.4565 27.4156 61.8571 27.0406C62.2577 26.6656 62.5602 26.2011 62.7648 25.6472L67.0858 26.1329C66.8131 27.275 66.2932 28.2722 65.5261 29.1244C64.7676 29.9682 63.796 30.6244 62.6114 31.0932C61.4267 31.5534 60.0716 31.7835 58.546 31.7835ZM69.3927 31.4V11.7636H73.8799V15.0364H74.0844C74.4424 13.9028 75.056 13.0293 75.9254 12.4156C76.8032 11.7935 77.8046 11.4824 78.9296 11.4824C79.1853 11.4824 79.4708 11.4952 79.7862 11.5207C80.11 11.5378 80.3785 11.5676 80.5916 11.6102V15.8673C80.3955 15.7991 80.0844 15.7395 79.6583 15.6883C79.2407 15.6287 78.8359 15.5989 78.4438 15.5989C77.6001 15.5989 76.8416 15.7821 76.1683 16.1486C75.5035 16.5065 74.9793 17.0051 74.5958 17.6443C74.2123 18.2835 74.0205 19.0207 74.0205 19.856V31.4H69.3927ZM97.386 16.954L93.1673 17.4142C93.0479 16.9881 92.8391 16.5875 92.5408 16.2125C92.2511 15.8375 91.859 15.5349 91.3647 15.3048C90.8704 15.0747 90.2653 14.9597 89.5494 14.9597C88.5863 14.9597 87.7766 15.1685 87.1204 15.5861C86.4727 16.0037 86.1531 16.5449 86.1616 17.2097C86.1531 17.7807 86.3619 18.2452 86.788 18.6031C87.2227 18.9611 87.9386 19.2551 88.9357 19.4852L92.2852 20.2011C94.1431 20.6017 95.5238 21.2366 96.4272 22.106C97.3391 22.9753 97.7994 24.1131 97.8079 25.5193C97.7994 26.7551 97.4371 27.846 96.7212 28.792C96.0138 29.7295 95.0295 30.4625 93.7681 30.9909C92.5067 31.5193 91.0579 31.7835 89.4215 31.7835C87.0181 31.7835 85.0835 31.2807 83.6175 30.275C82.1516 29.2608 81.2781 27.8503 80.9968 26.0435L85.5096 25.6088C85.7141 26.4952 86.1488 27.1642 86.8136 27.6159C87.4783 28.0676 88.3434 28.2935 89.4087 28.2935C90.5082 28.2935 91.3903 28.0676 92.055 27.6159C92.7283 27.1642 93.065 26.606 93.065 25.9412C93.065 25.3787 92.8477 24.9142 92.413 24.5477C91.9869 24.1812 91.3221 23.9 90.4187 23.704L87.0692 23.0008C85.1857 22.6088 83.7923 21.9483 82.8888 21.0193C81.9854 20.0818 81.538 18.8972 81.5465 17.4653C81.538 16.2551 81.8661 15.2068 82.5309 14.3204C83.2042 13.4256 84.1374 12.7352 85.3306 12.2494C86.5323 11.7551 87.9173 11.5079 89.4854 11.5079C91.7866 11.5079 93.5977 11.998 94.9187 12.9781C96.2482 13.9582 97.0707 15.2835 97.386 16.954ZM104.452 5.21817V31.4H99.8239V5.21817H104.452ZM113.061 31.7963C111.817 31.7963 110.696 31.5747 109.699 31.1315C108.71 30.6798 107.926 30.0151 107.347 29.1372C106.776 28.2594 106.49 27.177 106.49 25.8901C106.49 24.7821 106.695 23.8659 107.104 23.1415C107.513 22.417 108.071 21.8375 108.779 21.4028C109.486 20.9682 110.283 20.6401 111.169 20.4185C112.064 20.1883 112.989 20.0222 113.943 19.9199C115.094 19.8006 116.027 19.694 116.743 19.6003C117.459 19.498 117.979 19.3446 118.303 19.14C118.635 18.927 118.801 18.5989 118.801 18.1557V18.079C118.801 17.1159 118.516 16.3702 117.945 15.8418C117.374 15.3133 116.551 15.0491 115.477 15.0491C114.344 15.0491 113.445 15.2963 112.78 15.7906C112.124 16.2849 111.681 16.8687 111.45 17.542L107.129 16.9284C107.47 15.7352 108.033 14.7381 108.817 13.9369C109.601 13.1273 110.56 12.5222 111.693 12.1216C112.827 11.7125 114.08 11.5079 115.452 11.5079C116.398 11.5079 117.34 11.6187 118.277 11.8403C119.215 12.0619 120.071 12.4284 120.847 12.9398C121.622 13.4426 122.244 14.1287 122.713 14.998C123.19 15.8673 123.429 16.954 123.429 18.2579V31.4H118.98V28.7026H118.827C118.546 29.248 118.149 29.7594 117.638 30.2366C117.135 30.7054 116.5 31.0847 115.733 31.3744C114.975 31.6557 114.084 31.7963 113.061 31.7963ZM114.263 28.3957C115.192 28.3957 115.997 28.2125 116.679 27.846C117.361 27.471 117.885 26.9767 118.252 26.3631C118.627 25.7494 118.814 25.0804 118.814 24.356V22.042C118.669 22.1614 118.422 22.2722 118.073 22.3744C117.732 22.4767 117.348 22.5662 116.922 22.6429C116.496 22.7196 116.074 22.7878 115.656 22.8474C115.239 22.9071 114.877 22.9582 114.57 23.0008C113.879 23.0946 113.262 23.248 112.716 23.4611C112.171 23.6741 111.74 23.9724 111.425 24.356C111.11 24.731 110.952 25.2168 110.952 25.8133C110.952 26.6656 111.263 27.3091 111.885 27.7437C112.507 28.1784 113.3 28.3957 114.263 28.3957ZM136.088 11.7636V15.3432H124.8V11.7636H136.088ZM127.587 7.05908H132.214V25.4937C132.214 26.1159 132.308 26.5932 132.496 26.9256C132.692 27.2494 132.947 27.471 133.263 27.5903C133.578 27.7097 133.927 27.7693 134.311 27.7693C134.601 27.7693 134.865 27.748 135.104 27.7054C135.351 27.6628 135.538 27.6244 135.666 27.5903L136.446 31.2082C136.199 31.2935 135.845 31.3872 135.385 31.4895C134.933 31.5918 134.379 31.6514 133.723 31.6685C132.564 31.7026 131.52 31.5278 130.591 31.1443C129.662 30.7523 128.925 30.1472 128.379 29.329C127.842 28.5108 127.578 27.4881 127.587 26.2608V7.05908ZM146.641 31.7835C144.672 31.7835 142.972 31.3744 141.54 30.5562C140.116 29.7295 139.021 28.5619 138.254 27.0534C137.487 25.5364 137.104 23.7508 137.104 21.6969C137.104 19.677 137.487 17.9043 138.254 16.3787C139.03 14.8446 140.112 13.6514 141.501 12.7991C142.891 11.9383 144.523 11.5079 146.398 11.5079C147.608 11.5079 148.75 11.704 149.824 12.096C150.906 12.4795 151.861 13.0761 152.687 13.8858C153.523 14.6954 154.179 15.7267 154.656 16.9795C155.133 18.2239 155.372 19.7068 155.372 21.4284V22.8474H139.277V19.7281H150.936C150.927 18.8418 150.736 18.0534 150.361 17.3631C149.986 16.6642 149.462 16.1145 148.788 15.7139C148.124 15.3133 147.348 15.1131 146.462 15.1131C145.516 15.1131 144.685 15.3432 143.969 15.8034C143.253 16.2551 142.695 16.8517 142.294 17.5932C141.902 18.3261 141.702 19.1315 141.693 20.0094V22.7324C141.693 23.8744 141.902 24.8545 142.32 25.6727C142.737 26.4824 143.321 27.1045 144.071 27.5392C144.821 27.9653 145.699 28.1784 146.704 28.1784C147.378 28.1784 147.987 28.0847 148.533 27.8972C149.078 27.7011 149.551 27.4156 149.952 27.0406C150.352 26.6656 150.655 26.2011 150.859 25.6472L155.18 26.1329C154.908 27.275 154.388 28.2722 153.621 29.1244C152.862 29.9682 151.891 30.6244 150.706 31.0932C149.521 31.5534 148.166 31.7835 146.641 31.7835Z" fill="#FAFAFA"/>
</svg>
