<svg width="164" height="36" viewBox="0 0 164 36" fill="none" xmlns="http://www.w3.org/2000/svg">
<rect width="164" height="36" fill="#FAFAFA"/>
<path d="M2.58239 31.25V5.06818H12.4006C14.4119 5.06818 16.0994 5.41761 17.4631 6.11648C18.8352 6.81534 19.8707 7.79545 20.5696 9.05682C21.277 10.3097 21.6307 11.7713 21.6307 13.4418C21.6307 15.1207 21.2727 16.5781 20.5568 17.8139C19.8494 19.0412 18.8054 19.9915 17.4247 20.6648C16.044 21.3295 14.348 21.6619 12.3366 21.6619H5.34375V17.7244H11.6974C12.8736 17.7244 13.8366 17.5625 14.5866 17.2386C15.3366 16.9062 15.8906 16.4247 16.2486 15.794C16.6151 15.1548 16.7983 14.3707 16.7983 13.4418C16.7983 12.5128 16.6151 11.7202 16.2486 11.0639C15.8821 10.3991 15.3239 9.89631 14.5739 9.5554C13.8239 9.20597 12.8565 9.03125 11.6719 9.03125H7.32528V31.25H2.58239ZM16.108 19.3864L22.5895 31.25H17.2969L10.9304 19.3864H16.108ZM23.9919 31.25V11.6136H28.6197V31.25H23.9919ZM26.3186 8.8267C25.5857 8.8267 24.955 8.58381 24.4266 8.09801C23.8982 7.60369 23.6339 7.01136 23.6339 6.32102C23.6339 5.62216 23.8982 5.02983 24.4266 4.54403C24.955 4.04971 25.5857 3.80256 26.3186 3.80256C27.0601 3.80256 27.6908 4.04971 28.2107 4.54403C28.7391 5.02983 29.0033 5.62216 29.0033 6.32102C29.0033 7.01136 28.7391 7.60369 28.2107 8.09801C27.6908 8.58381 27.0601 8.8267 26.3186 8.8267ZM49.1184 11.6136L42.1255 31.25H37.0119L30.019 11.6136H34.9536L39.4664 26.2003H39.671L44.1965 11.6136H49.1184ZM58.546 31.6335C56.5773 31.6335 54.877 31.2244 53.4452 30.4062C52.0219 29.5795 50.9267 28.4119 50.1597 26.9034C49.3926 25.3864 49.0091 23.6009 49.0091 21.5469C49.0091 19.527 49.3926 17.7543 50.1597 16.2287C50.9352 14.6946 52.0176 13.5014 53.4068 12.6491C54.796 11.7884 56.4281 11.358 58.3031 11.358C59.5134 11.358 60.6554 11.554 61.7293 11.946C62.8116 12.3295 63.7662 12.9261 64.5929 13.7358C65.4281 14.5455 66.0844 15.5767 66.5616 16.8295C67.0389 18.0739 67.2776 19.5568 67.2776 21.2784V22.6974H51.1824V19.5781H62.8415C62.833 18.6918 62.6412 17.9034 62.2662 17.2131C61.8912 16.5142 61.367 15.9645 60.6937 15.5639C60.029 15.1634 59.2534 14.9631 58.367 14.9631C57.421 14.9631 56.5901 15.1932 55.8741 15.6534C55.1582 16.1051 54.6 16.7017 54.1994 17.4432C53.8074 18.1761 53.6071 18.9815 53.5986 19.8594V22.5824C53.5986 23.7244 53.8074 24.7045 54.225 25.5227C54.6426 26.3324 55.2264 26.9545 55.9764 27.3892C56.7264 27.8153 57.6043 28.0284 58.6099 28.0284C59.2832 28.0284 59.8926 27.9347 60.4381 27.7472C60.9835 27.5511 61.4565 27.2656 61.8571 26.8906C62.2577 26.5156 62.5602 26.0511 62.7648 25.4972L67.0858 25.983C66.8131 27.125 66.2932 28.1222 65.5261 28.9744C64.7676 29.8182 63.796 30.4744 62.6114 30.9432C61.4267 31.4034 60.0716 31.6335 58.546 31.6335ZM69.3927 31.25V11.6136H73.8799V14.8864H74.0844C74.4424 13.7528 75.056 12.8793 75.9254 12.2656C76.8032 11.6435 77.8046 11.3324 78.9296 11.3324C79.1853 11.3324 79.4708 11.3452 79.7862 11.3707C80.11 11.3878 80.3785 11.4176 80.5916 11.4602V15.7173C80.3955 15.6491 80.0844 15.5895 79.6583 15.5384C79.2407 15.4787 78.8359 15.4489 78.4438 15.4489C77.6001 15.4489 76.8416 15.6321 76.1683 15.9986C75.5035 16.3565 74.9793 16.8551 74.5958 17.4943C74.2123 18.1335 74.0205 18.8707 74.0205 19.706V31.25H69.3927ZM97.386 16.804L93.1673 17.2642C93.0479 16.8381 92.8391 16.4375 92.5408 16.0625C92.2511 15.6875 91.859 15.3849 91.3647 15.1548C90.8704 14.9247 90.2653 14.8097 89.5494 14.8097C88.5863 14.8097 87.7766 15.0185 87.1204 15.4361C86.4727 15.8537 86.1531 16.3949 86.1616 17.0597C86.1531 17.6307 86.3619 18.0952 86.788 18.4531C87.2227 18.8111 87.9386 19.1051 88.9357 19.3352L92.2852 20.0511C94.1431 20.4517 95.5238 21.0866 96.4272 21.956C97.3391 22.8253 97.7994 23.9631 97.8079 25.3693C97.7994 26.6051 97.4371 27.696 96.7212 28.642C96.0138 29.5795 95.0295 30.3125 93.7681 30.8409C92.5067 31.3693 91.0579 31.6335 89.4215 31.6335C87.0181 31.6335 85.0835 31.1307 83.6175 30.125C82.1516 29.1108 81.2781 27.7003 80.9968 25.8935L85.5096 25.4588C85.7141 26.3452 86.1488 27.0142 86.8136 27.4659C87.4783 27.9176 88.3434 28.1435 89.4087 28.1435C90.5082 28.1435 91.3903 27.9176 92.055 27.4659C92.7283 27.0142 93.065 26.456 93.065 25.7912C93.065 25.2287 92.8477 24.7642 92.413 24.3977C91.9869 24.0312 91.3221 23.75 90.4187 23.554L87.0692 22.8509C85.1857 22.4588 83.7923 21.7983 82.8888 20.8693C81.9854 19.9318 81.538 18.7472 81.5465 17.3153C81.538 16.1051 81.8661 15.0568 82.5309 14.1705C83.2042 13.2756 84.1374 12.5852 85.3306 12.0994C86.5323 11.6051 87.9173 11.358 89.4854 11.358C91.7866 11.358 93.5977 11.848 94.9187 12.8281C96.2482 13.8082 97.0707 15.1335 97.386 16.804ZM104.452 5.06818V31.25H99.8239V5.06818H104.452ZM113.061 31.6463C111.817 31.6463 110.696 31.4247 109.699 30.9815C108.71 30.5298 107.926 29.8651 107.347 28.9872C106.776 28.1094 106.49 27.027 106.49 25.7401C106.49 24.6321 106.695 23.7159 107.104 22.9915C107.513 22.267 108.071 21.6875 108.779 21.2528C109.486 20.8182 110.283 20.4901 111.169 20.2685C112.064 20.0384 112.989 19.8722 113.943 19.7699C115.094 19.6506 116.027 19.544 116.743 19.4503C117.459 19.348 117.979 19.1946 118.303 18.9901C118.635 18.777 118.801 18.4489 118.801 18.0057V17.929C118.801 16.9659 118.516 16.2202 117.945 15.6918C117.374 15.1634 116.551 14.8991 115.477 14.8991C114.344 14.8991 113.445 15.1463 112.78 15.6406C112.124 16.1349 111.681 16.7187 111.45 17.392L107.129 16.7784C107.47 15.5852 108.033 14.5881 108.817 13.7869C109.601 12.9773 110.56 12.3722 111.693 11.9716C112.827 11.5625 114.08 11.358 115.452 11.358C116.398 11.358 117.34 11.4688 118.277 11.6903C119.215 11.9119 120.071 12.2784 120.847 12.7898C121.622 13.2926 122.244 13.9787 122.713 14.848C123.19 15.7173 123.429 16.804 123.429 18.108V31.25H118.98V28.5526H118.827C118.546 29.098 118.149 29.6094 117.638 30.0866C117.135 30.5554 116.5 30.9347 115.733 31.2244C114.975 31.5057 114.084 31.6463 113.061 31.6463ZM114.263 28.2457C115.192 28.2457 115.997 28.0625 116.679 27.696C117.361 27.321 117.885 26.8267 118.252 26.2131C118.627 25.5994 118.814 24.9304 118.814 24.206V21.892C118.669 22.0114 118.422 22.1222 118.073 22.2244C117.732 22.3267 117.348 22.4162 116.922 22.4929C116.496 22.5696 116.074 22.6378 115.656 22.6974C115.239 22.7571 114.877 22.8082 114.57 22.8509C113.879 22.9446 113.262 23.098 112.716 23.3111C112.171 23.5241 111.74 23.8224 111.425 24.206C111.11 24.581 110.952 25.0668 110.952 25.6634C110.952 26.5156 111.263 27.1591 111.885 27.5938C112.507 28.0284 113.3 28.2457 114.263 28.2457ZM136.088 11.6136V15.1932H124.8V11.6136H136.088ZM127.587 6.90909H132.214V25.3438C132.214 25.9659 132.308 26.4432 132.496 26.7756C132.692 27.0994 132.947 27.321 133.263 27.4403C133.578 27.5597 133.927 27.6193 134.311 27.6193C134.601 27.6193 134.865 27.598 135.104 27.5554C135.351 27.5128 135.538 27.4744 135.666 27.4403L136.446 31.0582C136.199 31.1435 135.845 31.2372 135.385 31.3395C134.933 31.4418 134.379 31.5014 133.723 31.5185C132.564 31.5526 131.52 31.3778 130.591 30.9943C129.662 30.6023 128.925 29.9972 128.379 29.179C127.842 28.3608 127.578 27.3381 127.587 26.1108V6.90909ZM146.641 31.6335C144.672 31.6335 142.972 31.2244 141.54 30.4062C140.116 29.5795 139.021 28.4119 138.254 26.9034C137.487 25.3864 137.104 23.6009 137.104 21.5469C137.104 19.527 137.487 17.7543 138.254 16.2287C139.03 14.6946 140.112 13.5014 141.501 12.6491C142.891 11.7884 144.523 11.358 146.398 11.358C147.608 11.358 148.75 11.554 149.824 11.946C150.906 12.3295 151.861 12.9261 152.687 13.7358C153.523 14.5455 154.179 15.5767 154.656 16.8295C155.133 18.0739 155.372 19.5568 155.372 21.2784V22.6974H139.277V19.5781H150.936C150.927 18.6918 150.736 17.9034 150.361 17.2131C149.986 16.5142 149.462 15.9645 148.788 15.5639C148.124 15.1634 147.348 14.9631 146.462 14.9631C145.516 14.9631 144.685 15.1932 143.969 15.6534C143.253 16.1051 142.695 16.7017 142.294 17.4432C141.902 18.1761 141.702 18.9815 141.693 19.8594V22.5824C141.693 23.7244 141.902 24.7045 142.32 25.5227C142.737 26.3324 143.321 26.9545 144.071 27.3892C144.821 27.8153 145.699 28.0284 146.704 28.0284C147.378 28.0284 147.987 27.9347 148.533 27.7472C149.078 27.5511 149.551 27.2656 149.952 26.8906C150.352 26.5156 150.655 26.0511 150.859 25.4972L155.18 25.983C154.908 27.125 154.388 28.1222 153.621 28.9744C152.862 29.8182 151.891 30.4744 150.706 30.9432C149.521 31.4034 148.166 31.6335 146.641 31.6335Z" fill="#161616"/>
</svg>
