<svg width="164" height="60" viewBox="0 0 164 60" fill="none" xmlns="http://www.w3.org/2000/svg">
<rect width="164" height="60" fill="#FAFAFA"/>
<path d="M2.58239 43V16.8182H12.4006C14.4119 16.8182 16.0994 17.1676 17.4631 17.8665C18.8352 18.5653 19.8707 19.5455 20.5696 20.8068C21.277 22.0597 21.6307 23.5213 21.6307 25.1918C21.6307 26.8707 21.2727 28.3281 20.5568 29.5639C19.8494 30.7912 18.8054 31.7415 17.4247 32.4148C16.044 33.0795 14.348 33.4119 12.3366 33.4119H5.34375V29.4744H11.6974C12.8736 29.4744 13.8366 29.3125 14.5866 28.9886C15.3366 28.6562 15.8906 28.1747 16.2486 27.544C16.6151 26.9048 16.7983 26.1207 16.7983 25.1918C16.7983 24.2628 16.6151 23.4702 16.2486 22.8139C15.8821 22.1491 15.3239 21.6463 14.5739 21.3054C13.8239 20.956 12.8565 20.7812 11.6719 20.7812H7.32528V43H2.58239ZM16.108 31.1364L22.5895 43H17.2969L10.9304 31.1364H16.108ZM23.9919 43V23.3636H28.6197V43H23.9919ZM26.3186 20.5767C25.5857 20.5767 24.955 20.3338 24.4266 19.848C23.8982 19.3537 23.6339 18.7614 23.6339 18.071C23.6339 17.3722 23.8982 16.7798 24.4266 16.294C24.955 15.7997 25.5857 15.5526 26.3186 15.5526C27.0601 15.5526 27.6908 15.7997 28.2107 16.294C28.7391 16.7798 29.0033 17.3722 29.0033 18.071C29.0033 18.7614 28.7391 19.3537 28.2107 19.848C27.6908 20.3338 27.0601 20.5767 26.3186 20.5767ZM49.1184 23.3636L42.1255 43H37.0119L30.019 23.3636H34.9536L39.4664 37.9503H39.671L44.1965 23.3636H49.1184ZM58.546 43.3835C56.5773 43.3835 54.877 42.9744 53.4452 42.1562C52.0219 41.3295 50.9267 40.1619 50.1597 38.6534C49.3926 37.1364 49.0091 35.3509 49.0091 33.2969C49.0091 31.277 49.3926 29.5043 50.1597 27.9787C50.9352 26.4446 52.0176 25.2514 53.4068 24.3991C54.796 23.5384 56.4281 23.108 58.3031 23.108C59.5134 23.108 60.6554 23.304 61.7293 23.696C62.8116 24.0795 63.7662 24.6761 64.5929 25.4858C65.4281 26.2955 66.0844 27.3267 66.5616 28.5795C67.0389 29.8239 67.2776 31.3068 67.2776 33.0284V34.4474H51.1824V31.3281H62.8415C62.833 30.4418 62.6412 29.6534 62.2662 28.9631C61.8912 28.2642 61.367 27.7145 60.6937 27.3139C60.029 26.9134 59.2534 26.7131 58.367 26.7131C57.421 26.7131 56.5901 26.9432 55.8741 27.4034C55.1582 27.8551 54.6 28.4517 54.1994 29.1932C53.8074 29.9261 53.6071 30.7315 53.5986 31.6094V34.3324C53.5986 35.4744 53.8074 36.4545 54.225 37.2727C54.6426 38.0824 55.2264 38.7045 55.9764 39.1392C56.7264 39.5653 57.6043 39.7784 58.6099 39.7784C59.2832 39.7784 59.8926 39.6847 60.4381 39.4972C60.9835 39.3011 61.4565 39.0156 61.8571 38.6406C62.2577 38.2656 62.5602 37.8011 62.7648 37.2472L67.0858 37.733C66.8131 38.875 66.2932 39.8722 65.5261 40.7244C64.7676 41.5682 63.796 42.2244 62.6114 42.6932C61.4267 43.1534 60.0716 43.3835 58.546 43.3835ZM69.3927 43V23.3636H73.8799V26.6364H74.0844C74.4424 25.5028 75.056 24.6293 75.9254 24.0156C76.8032 23.3935 77.8046 23.0824 78.9296 23.0824C79.1853 23.0824 79.4708 23.0952 79.7862 23.1207C80.11 23.1378 80.3785 23.1676 80.5916 23.2102V27.4673C80.3955 27.3991 80.0844 27.3395 79.6583 27.2884C79.2407 27.2287 78.8359 27.1989 78.4438 27.1989C77.6001 27.1989 76.8416 27.3821 76.1683 27.7486C75.5035 28.1065 74.9793 28.6051 74.5958 29.2443C74.2123 29.8835 74.0205 30.6207 74.0205 31.456V43H69.3927ZM97.386 28.554L93.1673 29.0142C93.0479 28.5881 92.8391 28.1875 92.5408 27.8125C92.2511 27.4375 91.859 27.1349 91.3647 26.9048C90.8704 26.6747 90.2653 26.5597 89.5494 26.5597C88.5863 26.5597 87.7766 26.7685 87.1204 27.1861C86.4727 27.6037 86.1531 28.1449 86.1616 28.8097C86.1531 29.3807 86.3619 29.8452 86.788 30.2031C87.2227 30.5611 87.9386 30.8551 88.9357 31.0852L92.2852 31.8011C94.1431 32.2017 95.5238 32.8366 96.4272 33.706C97.3391 34.5753 97.7994 35.7131 97.8079 37.1193C97.7994 38.3551 97.4371 39.446 96.7212 40.392C96.0138 41.3295 95.0295 42.0625 93.7681 42.5909C92.5067 43.1193 91.0579 43.3835 89.4215 43.3835C87.0181 43.3835 85.0835 42.8807 83.6175 41.875C82.1516 40.8608 81.2781 39.4503 80.9968 37.6435L85.5096 37.2088C85.7141 38.0952 86.1488 38.7642 86.8136 39.2159C87.4783 39.6676 88.3434 39.8935 89.4087 39.8935C90.5082 39.8935 91.3903 39.6676 92.055 39.2159C92.7283 38.7642 93.065 38.206 93.065 37.5412C93.065 36.9787 92.8477 36.5142 92.413 36.1477C91.9869 35.7812 91.3221 35.5 90.4187 35.304L87.0692 34.6009C85.1857 34.2088 83.7923 33.5483 82.8888 32.6193C81.9854 31.6818 81.538 30.4972 81.5465 29.0653C81.538 27.8551 81.8661 26.8068 82.5309 25.9205C83.2042 25.0256 84.1374 24.3352 85.3306 23.8494C86.5323 23.3551 87.9173 23.108 89.4854 23.108C91.7866 23.108 93.5977 23.598 94.9187 24.5781C96.2482 25.5582 97.0707 26.8835 97.386 28.554ZM104.452 16.8182V43H99.8239V16.8182H104.452ZM113.061 43.3963C111.817 43.3963 110.696 43.1747 109.699 42.7315C108.71 42.2798 107.926 41.6151 107.347 40.7372C106.776 39.8594 106.49 38.777 106.49 37.4901C106.49 36.3821 106.695 35.4659 107.104 34.7415C107.513 34.017 108.071 33.4375 108.779 33.0028C109.486 32.5682 110.283 32.2401 111.169 32.0185C112.064 31.7884 112.989 31.6222 113.943 31.5199C115.094 31.4006 116.027 31.294 116.743 31.2003C117.459 31.098 117.979 30.9446 118.303 30.7401C118.635 30.527 118.801 30.1989 118.801 29.7557V29.679C118.801 28.7159 118.516 27.9702 117.945 27.4418C117.374 26.9134 116.551 26.6491 115.477 26.6491C114.344 26.6491 113.445 26.8963 112.78 27.3906C112.124 27.8849 111.681 28.4687 111.45 29.142L107.129 28.5284C107.47 27.3352 108.033 26.3381 108.817 25.5369C109.601 24.7273 110.56 24.1222 111.693 23.7216C112.827 23.3125 114.08 23.108 115.452 23.108C116.398 23.108 117.34 23.2188 118.277 23.4403C119.215 23.6619 120.071 24.0284 120.847 24.5398C121.622 25.0426 122.244 25.7287 122.713 26.598C123.19 27.4673 123.429 28.554 123.429 29.858V43H118.98V40.3026H118.827C118.546 40.848 118.149 41.3594 117.638 41.8366C117.135 42.3054 116.5 42.6847 115.733 42.9744C114.975 43.2557 114.084 43.3963 113.061 43.3963ZM114.263 39.9957C115.192 39.9957 115.997 39.8125 116.679 39.446C117.361 39.071 117.885 38.5767 118.252 37.9631C118.627 37.3494 118.814 36.6804 118.814 35.956V33.642C118.669 33.7614 118.422 33.8722 118.073 33.9744C117.732 34.0767 117.348 34.1662 116.922 34.2429C116.496 34.3196 116.074 34.3878 115.656 34.4474C115.239 34.5071 114.877 34.5582 114.57 34.6009C113.879 34.6946 113.262 34.848 112.716 35.0611C112.171 35.2741 111.74 35.5724 111.425 35.956C111.11 36.331 110.952 36.8168 110.952 37.4134C110.952 38.2656 111.263 38.9091 111.885 39.3438C112.507 39.7784 113.3 39.9957 114.263 39.9957ZM136.088 23.3636V26.9432H124.8V23.3636H136.088ZM127.587 18.6591H132.214V37.0938C132.214 37.7159 132.308 38.1932 132.496 38.5256C132.692 38.8494 132.947 39.071 133.263 39.1903C133.578 39.3097 133.927 39.3693 134.311 39.3693C134.601 39.3693 134.865 39.348 135.104 39.3054C135.351 39.2628 135.538 39.2244 135.666 39.1903L136.446 42.8082C136.199 42.8935 135.845 42.9872 135.385 43.0895C134.933 43.1918 134.379 43.2514 133.723 43.2685C132.564 43.3026 131.52 43.1278 130.591 42.7443C129.662 42.3523 128.925 41.7472 128.379 40.929C127.842 40.1108 127.578 39.0881 127.587 37.8608V18.6591ZM146.641 43.3835C144.672 43.3835 142.972 42.9744 141.54 42.1562C140.116 41.3295 139.021 40.1619 138.254 38.6534C137.487 37.1364 137.104 35.3509 137.104 33.2969C137.104 31.277 137.487 29.5043 138.254 27.9787C139.03 26.4446 140.112 25.2514 141.501 24.3991C142.891 23.5384 144.523 23.108 146.398 23.108C147.608 23.108 148.75 23.304 149.824 23.696C150.906 24.0795 151.861 24.6761 152.687 25.4858C153.523 26.2955 154.179 27.3267 154.656 28.5795C155.133 29.8239 155.372 31.3068 155.372 33.0284V34.4474H139.277V31.3281H150.936C150.927 30.4418 150.736 29.6534 150.361 28.9631C149.986 28.2642 149.462 27.7145 148.788 27.3139C148.124 26.9134 147.348 26.7131 146.462 26.7131C145.516 26.7131 144.685 26.9432 143.969 27.4034C143.253 27.8551 142.695 28.4517 142.294 29.1932C141.902 29.9261 141.702 30.7315 141.693 31.6094V34.3324C141.693 35.4744 141.902 36.4545 142.32 37.2727C142.737 38.0824 143.321 38.7045 144.071 39.1392C144.821 39.5653 145.699 39.7784 146.704 39.7784C147.378 39.7784 147.987 39.6847 148.533 39.4972C149.078 39.3011 149.551 39.0156 149.952 38.6406C150.352 38.2656 150.655 37.8011 150.859 37.2472L155.18 37.733C154.908 38.875 154.388 39.8722 153.621 40.7244C152.862 41.5682 151.891 42.2244 150.706 42.6932C149.521 43.1534 148.166 43.3835 146.641 43.3835Z" fill="#161616"/>
</svg>
